<svg id="Camada_1" data-name="Camada 1" xmlns="http://www.w3.org/2000/svg" viewBox="0 0 18 14.55986"><defs><style>.cls-1{fill:#01021f;}.cls-2{fill:#7aabdd;}.cls-10,.cls-14,.cls-16,.cls-17,.cls-19,.cls-22,.cls-3,.cls-9{fill:none;}.cls-3{stroke:#fafafa;stroke-width:1.53214px;}.cls-10,.cls-17,.cls-19,.cls-22,.cls-3,.cls-9{stroke-miterlimit:10;}.cls-4{fill:#fafafa;}.cls-5{fill:#205fb8;}.cls-6{fill:#fff;}.cls-7{fill:#1a549b;}.cls-8{fill:#f4bb54;}.cls-10,.cls-14,.cls-22,.cls-9{stroke:#01021f;}.cls-9{stroke-width:1.13438px;}.cls-10{stroke-width:3.41816px;}.cls-11{fill:#0f467f;}.cls-12{fill:#e99395;}.cls-13{fill:#d17a80;}.cls-14,.cls-16{stroke-linecap:round;stroke-linejoin:round;}.cls-14{stroke-width:1.0231px;}.cls-15{fill:#3488d1;}.cls-16,.cls-19{stroke:#fff;}.cls-16{stroke-width:0.77116px;}.cls-17{stroke:#d1d1d1;}.cls-17,.cls-22{stroke-width:1.07468px;}.cls-18{fill:#dbdadb;}.cls-19{stroke-width:0.60775px;}.cls-20{fill:#54578a;}.cls-21{fill:#606699;}</style></defs><path class="cls-1" d="M7.70227,4.88086A.74176.74176,0,1,0,6.477,5.71713L7.1644,6.701,8.332,5.82538Z" transform="translate(0 -1.72007)"/><path class="cls-1" d="M12.29015,6.65366l-.3005-.37992a.2498.2498,0,0,0-.29133-.05977l-.82624.38419h0L8.66017,6.3056,8.3323,5.82538l-1.03871.779.4197.56a.6316.6316,0,0,0,.52388.25258l.006.001,2.526-.10293,0,0a.679.679,0,0,0,.49755-.00186l.43954-.15469.10139.09738a.19452.19452,0,0,0,.243.02136l.13972-.09352a.28.28,0,0,0,.10186-.12292l.047-.11033A.28006.28006,0,0,0,12.29015,6.65366Z" transform="translate(0 -1.72007)"/><path class="cls-1" d="M9.84454,13.34672l.00186.16525,2.76338-.03027-.00186-.16525-.10441.00115a.53187.53187,0,0,0-.52371-.49542c-.52437-.07109-.64468-.036-.76441-.19157a.52571.52571,0,0,1-.09006-.2887.09026.09026,0,0,0-.091-.08653l-.01348.00015.00169-.41306h.46761v-.5632H11.303V8.90476h-.00073a.806.806,0,0,0-.8056-.79193H6.68071s-.56628,1.61266.97942,1.61266H9.72426v1.55378H9.56551v.5632h.42667l.01621.4252a.08984.08984,0,0,0-.08189.09031l.01114.98769" transform="translate(0 -1.72007)"/><path class="cls-2" d="M12.04885,4.93144v.71447s.15148-.02335.15148-.39693S12.04885,4.93144,12.04885,4.93144Z" transform="translate(0 -1.72007)"/><path class="cls-2" d="M12.5875,6.30828l-.12435-.87239a.10883.10883,0,0,0-.09843-.09342l-.24311-.02175.006-.06706.24311.02174a.17593.17593,0,0,1,.15912.151l.12435.87239Z" transform="translate(0 -1.72007)"/><path class="cls-3" d="M12.70619,6.60936l-.40948-1.46717a.291.291,0,0,0-.28029-.21277H11.7909" transform="translate(0 -1.72007)"/><ellipse class="cls-4" cx="11.70223" cy="3.17417" rx="0.17773" ry="0.52985"/><circle class="cls-4" cx="12.94203" cy="5.15631" r="0.56273"/><path class="cls-5" d="M12.585,4.44282h.09539a.42241.42241,0,0,1,.42241.42241v.58214a.42241.42241,0,0,1-.42241.42241H12.585a.4224.4224,0,0,1-.4224-.4224V4.86523a.4224.4224,0,0,1,.4224-.4224Z"/><rect class="cls-1" x="0.69852" y="10.8812" width="0.80305" height="0.55064"/><circle class="cls-1" cx="15.07515" cy="12.3312" r="2.22866"/><circle class="cls-2" cx="15.07515" cy="12.3312" r="1.41763"/><path class="cls-6" d="M14.66219,14.05127a.413.413,0,1,0,.413-.413A.413.413,0,0,0,14.66219,14.05127Z" transform="translate(0 -1.72007)"/><path class="cls-7" d="M15.08128,10.958A2.91872,2.91872,0,0,1,18,13.87671H12.16257A2.91871,2.91871,0,0,1,15.08128,10.958Z" transform="translate(0 -1.72007)"/><rect class="cls-8" x="0.81875" y="4.76194" width="2.92913" height="0.82217"/><rect class="cls-6" x="0.52069" y="5.57286" width="3.52524" height="2.58678"/><line class="cls-9" x1="2.07978" y1="4.76194" x2="1.95564" y2="8.23434"/><line class="cls-9" x1="2.34816" y1="4.76194" x2="2.4723" y2="8.23434"/><line class="cls-10" y1="8.23434" x2="4.47099" y2="8.23434"/><line class="cls-10" x1="1.50278" y1="8.23434" x2="2.4979" y2="8.96347"/><path class="cls-5" d="M12.3793,6.38755l-1.143.6575L12.24836,9.3284a2.98847,2.98847,0,0,1,.243,2.31172,6.80725,6.80725,0,0,1-1.094,1.85334H9.12422A1.39488,1.39488,0,0,1,7.96833,12.878a1.7438,1.7438,0,0,1-.31516-1.5195A2.77708,2.77708,0,0,1,8.99053,9.884H3.50586s-.95764.28313-2.37385,2.71727H1.7643l4.10708,1.27544h5.47478s.631.21291,1.50034-1.18342l1.4074-1.33476v0a3.09527,3.09527,0,0,0-.59656-1.82677L12.3793,7.7836Z" transform="translate(0 -1.72007)"/><path class="cls-1" d="M8.13457,9.98842a.4385.4385,0,0,1,.30646.12386c.19457.18915.59233.50187.8839.241.40031-.35816.04214-.95861-.56885-.90594a8.6962,8.6962,0,0,1-3.3499-.3371c-.73741-.4003-1.02183-.42138-1.25358-.16855s.13694.95577.82167,1.04674Z" transform="translate(0 -1.72007)"/><circle class="cls-1" cx="4.02785" cy="12.3312" r="2.22866"/><circle class="cls-2" cx="4.02785" cy="12.3312" r="1.41763"/><path class="cls-6" d="M3.61489,14.05127a.413.413,0,1,0,.413-.413A.413.413,0,0,0,3.61489,14.05127Z" transform="translate(0 -1.72007)"/><path class="cls-7" d="M.96974,13.59522a4.17356,4.17356,0,0,1,2.65845-3.01613c2.33291-.90423,3.22081.374,3.34566.61489a2.23145,2.23145,0,0,1-.291,2.40124Z" transform="translate(0 -1.72007)"/><path class="cls-11" d="M2.686,12.94028H5.27574a.08566.08566,0,0,0,.08566-.08566h0a.08566.08566,0,0,0-.08566-.08566H2.686a.08566.08566,0,0,0-.08566.08566h0A.08566.08566,0,0,0,2.686,12.94028Z" transform="translate(0 -1.72007)"/><path class="cls-11" d="M2.97518,12.52829H5.048a.08566.08566,0,0,0,.08566-.08566h0A.08566.08566,0,0,0,5.048,12.357H2.97518a.08566.08566,0,0,0-.08566.08566h0A.08566.08566,0,0,0,2.97518,12.52829Z" transform="translate(0 -1.72007)"/><path class="cls-11" d="M3.26553,12.12468H4.7502a.08567.08567,0,0,0,.08566-.08567h0a.08566.08566,0,0,0-.08566-.08565H3.26553a.08566.08566,0,0,0-.08566.08565h0A.08567.08567,0,0,0,3.26553,12.12468Z" transform="translate(0 -1.72007)"/><polygon class="cls-12" points="7.852 1.525 7.327 2.902 6.401 2.677 7.052 1.399 7.852 1.525"/><path class="cls-13" d="M7.19019,3.07456A1.98416,1.98416,0,0,0,7.48,4.2199l.1689-.4497Z" transform="translate(0 -1.72007)"/><path class="cls-12" d="M8.28294,2.52366l.091.91722a.41217.41217,0,0,1-.36947.45084h0a.75018.75018,0,0,1-.75863-.46416l-.29574-.6973a.25393.25393,0,0,1,.20935-.35034l.73084-.15315A.44467.44467,0,0,1,8.28294,2.52366Z" transform="translate(0 -1.72007)"/><path class="cls-12" d="M8.30925,2.9337l.18783.22838c.0227.03853-.01755.084-.07184.08107l-.27641.05141Z" transform="translate(0 -1.72007)"/><path class="cls-1" d="M7.26835,2.54975s.27542.10034.18133.32211c-.07887.18589-.02412.51867.21978.44587A1.11661,1.11661,0,0,1,8.3556,3.2561l.058.24981a.39241.39241,0,0,1-.28349.4705l-.011.0027a.73506.73506,0,0,1-.95318-.73169L7.09718,2.6423Z" transform="translate(0 -1.72007)"/><path class="cls-1" d="M7.06024,2.21593a.53388.53388,0,0,0-.5725.55638,1.46636,1.46636,0,0,0,.29861.754s.18474-.01159.23615-.27447a.18936.18936,0,0,0-.02028-.14811l.393-.50663s-.11014-.08232.06106-.183a1.02763,1.02763,0,0,1,.65573-.10881C8.01516,1.97989,7.12278,2.20508,7.06024,2.21593Z" transform="translate(0 -1.72007)"/><path class="cls-12" d="M6.71449,3.00083a.26113.26113,0,0,0,.31938.35281.25474.25474,0,0,0,.17624-.215.26113.26113,0,0,0-.40868-.24388A.21716.21716,0,0,0,6.71449,3.00083Z" transform="translate(0 -1.72007)"/><path class="cls-14" d="M6.99671,2.99641s-.18275.0247-.09113.2084" transform="translate(0 -1.72007)"/><path class="cls-1" d="M8.20873,2.28276l.98252-.14556a.0546.0546,0,0,1,.05806.041.053.053,0,0,1-.03833.07045l-.91592.18124A.0701.0701,0,0,1,8.212,2.37576c-.0074-.03751-.04241-.05836-.00392-.066Z" transform="translate(0 -1.72007)"/><path class="cls-15" d="M6.44141,2.82213l1.88628-.39765a.91.91,0,0,0-1.14791-.67366A.8709.8709,0,0,0,6.44141,2.82213Z" transform="translate(0 -1.72007)"/><path d="M8.21086,2.94561A.05473.05473,0,1,1,8.1595,2.8877.05474.05474,0,0,1,8.21086,2.94561Z" transform="translate(0 -1.72007)"/><path class="cls-1" d="M8.19818,2.68336c.01473.04755-.06117.06455-.15058.086s-.16455.033-.17323-.00823c-.00767-.03647.06116-.06455.15058-.086S8.1857,2.6431,8.19818,2.68336Z" transform="translate(0 -1.72007)"/><path class="cls-16" d="M8.03015,3.35846s.05116.09867.26014.04309" transform="translate(0 -1.72007)"/><path class="cls-6" d="M6.88523,4.22505a.67059.67059,0,0,0-.74727.34512,2.77426,2.77426,0,0,0,.01943,2.19476L6.27345,8.118H8.50452a6.23218,6.23218,0,0,0-.32967-2.44576C7.6077,4.41393,6.88523,4.22505,6.88523,4.22505Z" transform="translate(0 -1.72007)"/><path class="cls-12" d="M8.219,6.0954l.411.602a.63343.63343,0,0,1-.11761.84378h0A.63341.63341,0,0,1,7.6,7.43442l-.41971-.56Z" transform="translate(0 -1.72007)"/><path class="cls-6" d="M8.21168,6.0954,7.582,5.15088a.74176.74176,0,0,0-1.11283-.1404h0a.74178.74178,0,0,0-.11242.97668l.68739.9839Z" transform="translate(0 -1.72007)"/><line class="cls-17" x1="8.21898" y1="4.37533" x2="7.64892" y2="3.53004"/><polyline class="cls-17" points="7.18 5.154 7.044 5.251 6.257 4.063"/><path class="cls-12" d="M8.20144,6.52993l2.55731.33825-.10288.71687-2.526.10293a.61678.61678,0,0,1-.58307-.79629h0A.51953.51953,0,0,1,8.20144,6.52993Z" transform="translate(0 -1.72007)"/><path class="cls-12" d="M10.56854,6.95663,11.585,6.484a.2498.2498,0,0,1,.29134.05977l.3005.37993a.28.28,0,0,1,.04909.29674l-.047.11033a.27994.27994,0,0,1-.10185.12292l-.13973.09352a.19454.19454,0,0,1-.243-.02135L11.593,7.42847l-.43953.15468a.72133.72133,0,0,1-.70947-.11086Z" transform="translate(0 -1.72007)"/><path class="cls-1" d="M11.32543,7.11367l-.21726.13192a.28919.28919,0,0,0-.00807.42922h0a.28919.28919,0,0,0,.41087-.01545l.20175-.14785a.278.278,0,0,0-.01858-.39441h0A.278.278,0,0,0,11.32543,7.11367Z" transform="translate(0 -1.72007)"/><polygon class="cls-6" points="9.567 9.661 10.617 9.743 10.613 10.736 9.609 10.75 9.567 9.661"/><path class="cls-1" d="M9.51924,12.358l.01113.98769,2.56587-.028a.53188.53188,0,0,0-.5237-.49545c-.52437-.07109-.64468-.036-.76441-.19158a.52565.52565,0,0,1-.09006-.28869.09027.09027,0,0,0-.091-.08653l-1.01872.01148A.09012.09012,0,0,0,9.51924,12.358Z" transform="translate(0 -1.72007)"/><rect class="cls-1" x="9.43813" y="13.33158" width="2.76355" height="0.16526" transform="translate(21.78609 24.98903) rotate(179.37239)"/><path class="cls-18" d="M10.56628,12.57554a.03894.03894,0,1,0,.0385-.03938A.03894.03894,0,0,0,10.56628,12.57554Z" transform="translate(0 -1.72007)"/><path class="cls-18" d="M10.68761,12.74663a.03894.03894,0,1,0,.0385-.03937A.03895.03895,0,0,0,10.68761,12.74663Z" transform="translate(0 -1.72007)"/><path class="cls-18" d="M10.91228,12.85039a.03894.03894,0,1,0,.0385-.03938A.03894.03894,0,0,0,10.91228,12.85039Z" transform="translate(0 -1.72007)"/><path class="cls-18" d="M11.1736,12.88639a.03894.03894,0,1,0,.0385-.03938A.03894.03894,0,0,0,11.1736,12.88639Z" transform="translate(0 -1.72007)"/><line class="cls-19" x1="9.53037" y1="11.6256" x2="12.09624" y2="11.59756"/><rect class="cls-20" x="9.317" y="7.18469" width="1.5787" height="2.9377"/><rect class="cls-21" x="9.15825" y="9.5592" width="1.92462" height="0.5632"/><path class="cls-20" d="M6.27345,8.11283s-.56628,1.61266.97941,1.61266h2.83652a.80632.80632,0,0,0,.80632-.80632v0a.80633.80633,0,0,0-.80632-.80633Z" transform="translate(0 -1.72007)"/><line class="cls-22" x1="9.317" y1="8.03846" x2="9.83076" y2="8.03846"/></svg>